<svg width="63" height="23" viewBox="0 0 63 23" fill="none" xmlns="http://www.w3.org/2000/svg">
<path d="M0.642155 6H2.92215L3.28215 7.44H3.37815C3.79415 6.832 4.28215 6.384 4.84215 6.096C5.41815 5.808 6.11415 5.664 6.93015 5.664C8.43415 5.664 9.56216 6.144 10.3142 7.104C11.0662 8.048 11.4422 9.576 11.4422 11.688C11.4422 12.712 11.3222 13.64 11.0822 14.472C10.8422 15.288 10.4822 15.984 10.0022 16.56C9.53816 17.136 8.96216 17.576 8.27416 17.88C7.60215 18.184 6.82615 18.336 5.94616 18.336C5.45016 18.336 5.04215 18.296 4.72215 18.216C4.40216 18.152 4.08215 18.04 3.76215 17.88V22.8H0.642155V6ZM5.99415 8.304C5.38615 8.304 4.90615 8.456 4.55415 8.76C4.21816 9.064 3.95415 9.52 3.76215 10.128V15.12C3.98615 15.296 4.22615 15.44 4.48215 15.552C4.75415 15.648 5.10615 15.696 5.53815 15.696C6.43415 15.696 7.10615 15.384 7.55416 14.76C8.00216 14.12 8.22616 13.072 8.22616 11.616C8.22616 10.56 8.05016 9.744 7.69815 9.168C7.34616 8.592 6.77816 8.304 5.99415 8.304ZM27.2203 6H29.5003L29.8603 7.44H29.9563C30.3723 6.832 30.8603 6.384 31.4203 6.096C31.9963 5.808 32.6923 5.664 33.5083 5.664C35.0123 5.664 36.1403 6.144 36.8923 7.104C37.6443 8.048 38.0203 9.576 38.0203 11.688C38.0203 12.712 37.9003 13.64 37.6603 14.472C37.4203 15.288 37.0603 15.984 36.5803 16.56C36.1163 17.136 35.5403 17.576 34.8523 17.88C34.1803 18.184 33.4043 18.336 32.5243 18.336C32.0283 18.336 31.6203 18.296 31.3003 18.216C30.9803 18.152 30.6603 18.04 30.3403 17.88V22.8H27.2203V6ZM32.5723 8.304C31.9643 8.304 31.4843 8.456 31.1323 8.76C30.7963 9.064 30.5323 9.52 30.3403 10.128V15.12C30.5643 15.296 30.8043 15.44 31.0603 15.552C31.3323 15.648 31.6843 15.696 32.1163 15.696C33.0123 15.696 33.6843 15.384 34.1323 14.76C34.5803 14.12 34.8043 13.072 34.8043 11.616C34.8043 10.56 34.6283 9.744 34.2763 9.168C33.9243 8.592 33.3563 8.304 32.5723 8.304ZM40.1092 6.696C40.7492 6.408 41.5092 6.184 42.3892 6.024C43.2692 5.848 44.1892 5.76 45.1492 5.76C45.9812 5.76 46.6772 5.864 47.2372 6.072C47.7972 6.264 48.2372 6.544 48.5572 6.912C48.8932 7.28 49.1252 7.72 49.2532 8.232C49.3972 8.744 49.4692 9.32 49.4692 9.96C49.4692 10.664 49.4452 11.376 49.3972 12.096C49.3492 12.8 49.3172 13.496 49.3012 14.184C49.3012 14.872 49.3252 15.544 49.3732 16.2C49.4212 16.84 49.5412 17.448 49.7332 18.024H47.1892L46.6852 16.368H46.5652C46.2452 16.864 45.7972 17.296 45.2212 17.664C44.6612 18.016 43.9332 18.192 43.0372 18.192C42.4772 18.192 41.9732 18.112 41.5252 17.952C41.0772 17.776 40.6932 17.536 40.3732 17.232C40.0532 16.912 39.8052 16.544 39.6292 16.128C39.4532 15.696 39.3652 15.216 39.3652 14.688C39.3652 13.952 39.5252 13.336 39.8452 12.84C40.1812 12.328 40.6532 11.92 41.2612 11.616C41.8852 11.296 42.6212 11.08 43.4692 10.968C44.3332 10.84 45.2932 10.8 46.3492 10.848C46.4612 9.952 46.3972 9.312 46.1572 8.928C45.9172 8.528 45.3812 8.328 44.5492 8.328C43.9252 8.328 43.2612 8.392 42.5572 8.52C41.8692 8.648 41.3012 8.816 40.8532 9.024L40.1092 6.696ZM44.0692 15.624C44.6932 15.624 45.1892 15.488 45.5572 15.216C45.9252 14.928 46.1972 14.624 46.3732 14.304V12.744C45.8772 12.696 45.3972 12.688 44.9332 12.72C44.4852 12.752 44.0852 12.824 43.7332 12.936C43.3812 13.048 43.1012 13.208 42.8932 13.416C42.6852 13.624 42.5812 13.888 42.5812 14.208C42.5812 14.656 42.7092 15.008 42.9652 15.264C43.2372 15.504 43.6052 15.624 44.0692 15.624ZM56.4555 12.744L56.8875 14.616H57.0315L57.3435 12.72L59.1675 6H62.3835L58.7355 16.824C58.4315 17.72 58.1355 18.536 57.8475 19.272C57.5755 20.024 57.2715 20.672 56.9355 21.216C56.5995 21.76 56.2235 22.176 55.8075 22.464C55.4075 22.768 54.9275 22.92 54.3675 22.92C53.5355 22.92 52.8715 22.784 52.3755 22.512L52.9515 20.016C53.1915 20.112 53.4315 20.16 53.6715 20.16C54.0395 20.16 54.3915 20 54.7275 19.68C55.0795 19.376 55.3435 18.816 55.5195 18L50.5035 6H54.2475L56.4555 12.744Z" fill="#595959"/>
<path d="M23.6351 5.304C23.6351 6.12 23.4831 6.944 23.1791 7.776C22.8911 8.608 22.5151 9.424 22.0511 10.224C21.6031 11.024 21.0991 11.8 20.5391 12.552C19.9951 13.288 19.4591 13.968 18.9311 14.592L17.6591 15.576V15.696L19.3871 15.36H23.9951V18H13.8911V16.392C14.2751 15.992 14.7071 15.528 15.1871 15C15.6671 14.456 16.1471 13.888 16.6271 13.296C17.1231 12.688 17.6031 12.064 18.0671 11.424C18.5311 10.784 18.9471 10.144 19.3151 9.504C19.6831 8.848 19.9711 8.216 20.1791 7.608C20.4031 7 20.5151 6.424 20.5151 5.88C20.5151 5.224 20.3231 4.688 19.9391 4.272C19.5711 3.84 18.9791 3.624 18.1631 3.624C17.6511 3.624 17.1231 3.736 16.5791 3.96C16.0511 4.168 15.6031 4.44 15.2351 4.776L13.9871 2.568C14.6111 2.056 15.3151 1.648 16.0991 1.344C16.8991 1.024 17.8351 0.863999 18.9071 0.863999C19.5951 0.863999 20.2271 0.959999 20.8031 1.152C21.3791 1.344 21.8751 1.624 22.2911 1.992C22.7071 2.36 23.0351 2.824 23.2751 3.384C23.5151 3.928 23.6351 4.568 23.6351 5.304Z" fill="#449553"/>
</svg>
