<svg width="41" height="40" viewBox="0 0 41 40" fill="none" xmlns="http://www.w3.org/2000/svg">
<path d="M40.5 32.44C40.5 37.3 37.8 40 32.94 40H8.06C3.2 40 0.5 37.3 0.5 32.44V7.56C0.5 2.7 3.2 0 8.06 0H32.95C37.8 0 40.5 2.7 40.5 7.56V32.44Z" fill="#FFE600"/>
<path d="M26.2197 18.0494V14.2294L27.5997 12.8494V16.1594L28.7997 17.3594L33.6297 12.5294L34.8197 13.7194C34.8097 12.8194 34.6297 10.2094 32.4197 8.03942C30.0397 5.73942 27.4597 6.77942 26.5797 7.65942L21.7597 12.4794L22.9897 13.7094L20.4997 16.2194L18.0097 13.7294L19.2397 12.4994L14.4197 7.67942C13.5397 6.79942 10.9597 5.75942 8.57969 8.05942C6.36969 10.2294 6.18969 12.8394 6.17969 13.7394L7.36969 12.5494L12.1997 17.3794L13.3997 16.1794V12.8694L14.7797 14.2494V18.0694L16.7197 19.9994L7.15969 29.5594L10.9397 33.3294L20.4997 23.7794L30.0597 33.3394L33.8397 29.5694L24.2797 19.9994L26.2197 18.0494Z" fill="#2B2D34"/>
</svg>
