<svg width="36" height="34" viewBox="0 0 36 34" fill="none" xmlns="http://www.w3.org/2000/svg">
<path d="M34.2483 12.482L23.8345 10.9686L19.1792 1.53087C19.052 1.27248 18.8429 1.0633 18.5845 0.936148C17.9364 0.616226 17.1489 0.882828 16.8249 1.53087L12.1696 10.9686L1.75576 12.482C1.46865 12.5231 1.20615 12.6584 1.00517 12.8635C0.762201 13.1132 0.628313 13.4492 0.632928 13.7976C0.637542 14.146 0.780281 14.4783 1.02978 14.7215L8.56435 22.0674L6.78427 32.4403C6.74253 32.6815 6.76923 32.9297 6.86135 33.1566C6.95347 33.3835 7.10732 33.58 7.30545 33.7239C7.50359 33.8678 7.73808 33.9534 7.98234 33.9708C8.22659 33.9882 8.47085 33.9368 8.6874 33.8225L18.002 28.9252L27.3167 33.8225C27.571 33.9578 27.8663 34.0029 28.1493 33.9537C28.863 33.8307 29.3429 33.1539 29.2198 32.4403L27.4397 22.0674L34.9743 14.7215C35.1794 14.5205 35.3147 14.258 35.3558 13.9709C35.4665 13.2531 34.9661 12.5887 34.2483 12.482Z" fill="#BFBFBF"/>
</svg>
